# AST/ASF file generated using VICON BodyLanguage
# -----------------------------------------------
:version 1.10
:name VICON
:units
  mass 1.0
  length 0.45
  angle deg
:documentation
   .ast/.asf automatically generated from VICON data using
   VICON BodyBuilder and BodyLanguage model FoxedUp or BRILLIANT.MOD
:root
   order TX TY TZ RX RY RZ
   axis XYZ
   position 0 0 0  
   orientation 0 0 0 
:bonedata
  begin
     id 1 
     name lhipjoint
     direction 0.678564 -0.644259 0.352817 
     length 2.99514 
     axis 0 0 0  XYZ
  end
  begin
     id 2 
     name lfemur
     direction 0.34202 -0.939693 0  
     length 7.29983  
     axis 0 0 20  XYZ
    dof rx ry rz
    limits (-160.0 20.0)
           (-70.0 70.0)
           (-60.0 70.0)
  end
  begin
     id 3 
     name ltibia
     direction 0.34202 -0.939693 0   
     length 8.59502   
     axis 0 0 20   XYZ
    dof rx
    limits (-10.0 170.0)
  end
  begin
     id 4 
     name lfoot
     direction 0.256607 -0.705022 0.661133   
     length 2.92136   
     axis -90 7.62852e-016 20   XYZ
    dof rx rz
    limits (-45.0 90.0)
           (-70.0 20.0)
  end
  begin
     id 5 
     name ltoes
     direction 1.53673e-011 -4.22167e-011 1   
     length 1.31421   
     axis -90 7.62852e-016 20   XYZ
    dof rx
    limits (-90.0 20.0)
  end
  begin
     id 6 
     name rhipjoint
     direction -0.664671 -0.655307 0.358867   
     length 2.94464  
     axis 0 0 0  XYZ 
  end
  begin
     id 7 
     name rfemur
     direction -0.34202 -0.939693 0   
     length 7.1902   
     axis 0 0 -20   XYZ
    dof rx ry rz
    limits (-160.0 20.0)
           (-70.0 70.0)
           (-70.0 60.0)
  end
  begin
     id 8 
     name rtibia
     direction -0.342306 -0.939589 0   
     length 7.92304   
     axis 0 0 -20   XYZ
    dof rx
    limits (-10.0 170.0)
 end
 begin
     id 9 
     name rfoot
     direction -0.135083 -0.371136 0.9187   
     length 2.14777  
     axis -90 -7.62852e-016 -20   XYZ
    dof rx rz
    limits (-45.0 90.0)
           (-20.0 70.0)
  end
  begin
     id 10 
     name rtoes
     direction -1.53535e-011 -4.21537e-011 1   
     length 1.05997   
     axis -90 -7.62852e-016 -20   XYZ
    dof rx
    limits (-90.0 20.0)
  end
  begin
     id 11 
     name lowerback
     direction -0.0195507 0.995133 0.0965771   
     length 2.09792   
     axis 0 0 0   XYZ
    dof rx ry rz
    limits (-20.0 45.0)
           (-30.0 30.0)
           (-30.0 30.0)
  end
  begin
     id 12 
     name upperback
     direction 0.00551419 0.999637 0.0263729   
     length 2.10514   
     axis 0 0 0   XYZ
    dof rx ry rz
    limits (-20.0 45.0)
           (-30.0 30.0)
           (-30.0 30.0)
  end
  begin
     id 13 
     name thorax
     direction 0.0138853 0.999728 -0.0187549   
     length 2.12411   
     axis 0 0 0   XYZ
    dof rx ry rz
    limits (-20.0 45.0)
           (-30.0 30.0)
           (-30.0 30.0)
  end
  begin
     id 14 
     name lowerneck
     direction 0.00575564 0.995441 0.0952053   
     length 2.98955   
     axis 0 0 0   XYZ
    dof rx ry rz
    limits (-20.0 45.0)
           (-30.0 30.0)
           (-30.0 30.0)
  end
  begin
     id 15 
     name upperneck
     direction 0.0362743 0.998452 -0.0421753   
     length 3.03688   
     axis 0 0 0   XYZ
    dof rx ry rz
    limits (-20.0 45.0)
           (-30.0 30.0)
           (-30.0 30.0)
  end
  begin
     id 16
     name head
     direction -0.0138164 0.799054 0.6011  
     length 1.47017  
     axis 0 0 0   XYZ
    dof rx ry rz
    limits (-20.0 45.0)
           (-30.0 30.0)
           (-30.0 30.0)
  end
  begin
     id 17 
     name lclavicle
     direction 0.925636 0.378361 -0.006363  
     length 3.33831  
     axis 0 0 0   XYZ
    dof ry rz
    limits (-20.0 10.0)
           (0.0 20.0)
  end
  begin
     id 18 
     name lhumerus
     direction 1 -4.48983e-011 -5.50319e-028   
     length 4.79344   
     axis -180 -30 -90   XYZ
    dof rx ry rz
    limits (-60.0 90.0)
           (-90.0 90.0)
           (-90.0 90.0)
  end
  begin
     id 19
     name lradius
     direction 1 -4.48905e-011 9.20478e-027   
     length 2.94221   
     axis -180 -30 -90   XYZ
    dof rx
    limits (-10.0 170.0)
  end
  begin
     id 20
     name lwrist
     direction 1 -4.4898e-011 2.08228e-026   
     length 1.4711   
     axis -1.38353e-014 90 90   XYZ
    dof ry
    limits (-180.0 0.0)
 end
  begin
     id 21 
     name lhand
     direction 1 -4.48957e-011 4.16456e-026   
     length 0.889984   
     axis -2.65735e-014 90 90   XYZ
    dof rx rz
    limits (-90.0 90.0)
           (-45.0 45.0)
  end
  begin
     id 22 
     name lfingers
     direction 1 -4.49044e-011 8.32913e-026   
     length 0.717528   
     axis -5.3147e-014 90 90   XYZ
    dof rx
    limits (0.0 90.0)
  end
  begin
     id 23
     name lthumb
     direction 0.707107 -6.35171e-011 0.707107   
     length 1.03023   
     axis -90 45 2.85299e-015   XYZ
    dof rx rz
    limits (-45.0 45.0)
           (-45.0 45.0)
  end
  begin
     id 24 
     name rclavicle
     direction -0.892514 0.445149 0.0725343   
     length 3.17271  
     axis 0 0 0   XYZ 
    dof ry rz
    limits (-10.0 20.0)
           (-20.0 0.0)
  end
  begin
     id 25 
     name rhumerus
     direction -1 -4.48952e-011 5.59695e-028  
     length 5.4863   
     axis -180 30 90   XYZ
    dof rx ry rz
    limits (-90.0 60.0)
           (-90.0 90.0)
           (-90.0 90.0)
  end
  begin
     id 26 
     name rradius
     direction -1 -4.48963e-011 1.14146e-026   
     length 3.17201   
     axis -180 30 90   XYZ
    dof rx
    limits (-10.0 170.0)
  end
  begin
     id 27 
     name rwrist
     direction -1 -4.49046e-011 2.08228e-026   
     length 1.58601   
     axis -1.38353e-014 -90 -90   XYZ
    dof ry
    limits (-180.0 0.0)
  end
  begin
     id 28
     name rhand
     direction -1 -4.48815e-011 4.16456e-026   
     length 0.874513   
     axis -2.65735e-014 -90 -90   XYZ
    dof rx rz
    limits (-90.0 90.0)
           (-45.0 45.0)
  end
  begin
     id 29
     name rfingers
     direction -1 -4.48918e-011 8.32913e-026   
     length 0.705055   
     axis -5.3147e-014 -90 -90   XYZ
    dof rx
    limits (0.0 90.0)
  end
  begin
     id 30
     name rthumb
     direction -0.707107 -6.34858e-011 0.707107   
     length 1.01232   
     axis -90 -45 -2.85299e-015   XYZ
    dof rx rz
    limits (-45.0 45.0)
           (-45.0 45.0)
  end
:hierarchy
  begin
    root lhipjoint rhipjoint lowerback
    lhipjoint lfemur
    lfemur ltibia
    ltibia lfoot
    lfoot ltoes
    rhipjoint rfemur
    rfemur rtibia
    rtibia rfoot
    rfoot rtoes
    lowerback upperback
    upperback thorax
    thorax lowerneck lclavicle rclavicle
    lowerneck upperneck
    upperneck head
    lclavicle lhumerus
    lhumerus lradius
    lradius lwrist
    lwrist lhand lthumb
    lhand lfingers
    rclavicle rhumerus
    rhumerus rradius
    rradius rwrist
    rwrist rhand rthumb
    rhand rfingers
  end

#!OML:ASF F:\VICON\USERDATA\INSTALL\rory3\rory3.ASF
:FULLY-SPECIFIED
:DEGREES
1619
root 3.4816 18.4653 -0.806121 -127.053 89.3323 -140.038
lowerback -13.1092 -0.228436 0.146269
upperback -4.15873 -0.136695 -0.210004
thorax 2.97981 0.00698977 -0.318437
lowerneck -23.5722 -9.25581 -1.56219
upperneck 3.53638 44.8285 2.33465
head 29.0797 44.1296 177.851
rclavicle -5.15598e-016 7.25564e-015
rhumerus -34.9849 59.4349 -67.8119
rradius 115.023
rwrist 15.273
rhand -31.3585 0.93821
rfingers 7.12502
rthumb -4.62935 -28.9912
lclavicle -5.15598e-016 7.25564e-015
lhumerus -20.0633 -35.7501 56.7167
lradius 127.83
lwrist 12.8718
lhand -10.1665 -5.16956
lfingers 7.12502
lthumb 15.8233 24.2038
rfemur -10.1684 16.7806 18.1214
rtibia 10.3226
rfoot -18.7289 -19.2608
rtoes -13.1236
lfemur -13.0824 -4.27057 -22.314
ltibia 17.197
lfoot -4.6906 5.81422
ltoes -10.2775
1620
root 3.48128 18.4645 -0.805818 -131.037 89.2274 -144.054
lowerback -13.0367 -0.223005 0.18293
upperback -4.15306 -0.131486 -0.298415
thorax 2.94607 0.00888095 -0.430301
lowerneck -23.6529 -9.22265 -1.74736
upperneck 3.55351 45.0237 2.32952
head 29.1191 44.4514 177.792
rclavicle 1.33558e-016 2.98177e-015
rhumerus -37.7825 59.8301 -69.8851
rradius 113.855
rwrist 16.459
rhand -31.2272 1.40257
rfingers 7.12502
rthumb -4.50251 -28.5296
lclavicle 1.33558e-016 2.98177e-015
lhumerus -20.3083 -34.92 56.0738
lradius 128.183
lwrist 13.5686
lhand -9.78113 -5.24283
lfingers 7.12502
lthumb 16.1944 24.1007
rfemur -10.189 16.7381 18.1486
rtibia 10.3321
rfoot -18.8103 -19.2949
rtoes -13.1921
lfemur -13.2037 -4.31706 -22.2614
ltibia 17.3202
lfoot -4.72718 5.8228
ltoes -10.3357
1621
root 3.48057 18.4638 -0.806493 -134.759 89.1065 -147.86
lowerback -13.1302 -0.222848 0.245701
upperback -4.07974 -0.136423 -0.423205
thorax 3.07282 0.00548561 -0.596898
lowerneck -23.8203 -9.18786 -1.87757
upperneck 3.53561 45.1797 2.31906
head 29.1789 44.7995 177.764
rclavicle -1.30452e-015 -3.97569e-015
rhumerus -40.4282 60.1212 -71.7921
rradius 112.669
rwrist 17.5579
rhand -31.2285 1.85631
rfingers 7.12502
rthumb -4.50382 -28.0758
lclavicle -1.30452e-015 -3.97569e-015
lhumerus -20.4385 -33.9932 55.3321
lradius 128.499
lwrist 13.9536
lhand -9.77234 -5.32629
lfingers 7.12502
lthumb 16.2029 24.0166
rfemur -10.2769 16.6566 18.1564
rtibia 10.3683
rfoot -18.9084 -19.2709
rtoes -13.1572
lfemur -13.3573 -4.29274 -22.2173
ltibia 17.4137
lfoot -4.8757 5.89562
ltoes -10.302
1622
root 3.47776 18.4649 -0.806027 -140.362 88.9805 -153.557
lowerback -13.0141 -0.278206 0.165367
upperback -4.10365 -0.196097 -0.49829
thorax 2.98419 -0.0243849 -0.638554
lowerneck -23.963 -9.18235 -1.9567
upperneck 3.43863 45.0863 2.22957
head 29.1032 44.7012 177.731
rclavicle -2.25496e-015 -1.19271e-015
rhumerus -43.1238 60.7563 -73.6974
rradius 111.621
rwrist 18.5171
rhand -31.0248 2.07452
rfingers 7.12502
rthumb -4.30705 -27.8617
lclavicle -2.25496e-015 -1.19271e-015
lhumerus -20.728 -33.0234 54.6353
lradius 128.86
lwrist 14.1785
lhand -10.0783 -5.27514
lfingers 7.12502
lthumb 15.9083 24.0915
rfemur -10.3773 16.6138 18.1141
rtibia 10.3883
rfoot -18.9776 -19.315
rtoes -12.7266
lfemur -13.5538 -4.31155 -22.2044
ltibia 17.5352
lfoot -5.03655 6.00829
ltoes -10.294
1623
root 3.47507 18.4672 -0.804316 -145.534 88.8069 -158.832
lowerback -12.8725 -0.304026 0.092925
upperback -4.21144 -0.212161 -0.626599
thorax 2.79442 -0.0312833 -0.732868
lowerneck -23.927 -9.20315 -2.01379
upperneck 3.4879 45.1354 2.28482
head 29.0918 44.8439 177.627
rclavicle 4.72114e-015 -3.97569e-016
rhumerus -46.2142 61.2727 -76.0514
rradius 110.61
rwrist 19.3885
rhand -30.7202 2.31911
rfingers 7.12502
rthumb -4.01292 -27.6228
lclavicle 4.72114e-015 -3.97569e-016
lhumerus -20.8323 -32.2121 53.7599
lradius 129.213
lwrist 14.5604
lhand -10.5042 -5.01972
lfingers 7.12502
lthumb 15.4981 24.3791
rfemur -10.493 16.5439 18.0821
rtibia 10.4362
rfoot -19.0746 -19.3906
rtoes -12.5286
lfemur -13.7611 -4.31331 -22.1901
ltibia 17.6405
lfoot -5.24508 6.1189
ltoes -10.274
1624
root 3.47222 18.4675 -0.804314 -148.852 88.624 -162.262
lowerback -12.7744 -0.314578 0.0487585
upperback -4.34032 -0.210975 -0.742048
thorax 2.60643 -0.0289478 -0.827132
lowerneck -23.7696 -9.22745 -2.16857
upperneck 3.62962 45.3952 2.38037
head 29.1923 45.2745 177.598
rclavicle -6.1499e-016 3.18055e-015
rhumerus -49.4975 61.5659 -78.4487
rradius 109.568
rwrist 20.376
rhand -30.6581 3.0019
rfingers 7.12502
rthumb -3.95296 -26.9412
lclavicle -6.1499e-016 3.18055e-015
lhumerus -20.8228 -31.3101 52.8656
lradius 129.507
lwrist 15.0503
lhand -10.8084 -4.76204
lfingers 7.12502
lthumb 15.2051 24.6592
rfemur -10.6037 16.4224 18.0592
rtibia 10.4428
rfoot -19.1819 -19.4294
rtoes -12.3928
lfemur -13.9907 -4.36112 -22.1706
ltibia 17.7731
lfoot -5.3794 6.20134
ltoes -10.1985
1625
root 3.47015 18.4671 -0.806193 -151.8 88.4895 -165.291
lowerback -12.6993 -0.325935 -0.0552375
upperback -4.40733 -0.207335 -0.831601
thorax 2.49597 -0.0259827 -0.860571
lowerneck -23.6575 -9.28043 -2.28174
upperneck 3.69265 45.4871 2.4055
head 29.2519 45.4866 177.637
rclavicle -1.42255e-015 -7.95139e-016
rhumerus -52.378 61.7486 -80.3458
rradius 108.546
rwrist 21.0036
rhand -30.4267 4.24243
rfingers 7.12502
rthumb -3.72956 -25.7047
lclavicle -1.42255e-015 -7.95139e-016
lhumerus -20.6602 -30.1397 51.8764
lradius 129.773
lwrist 15.6009
lhand -10.9886 -4.54707
lfingers 7.12502
lthumb 15.0315 24.8873
rfemur -10.652 16.344 18.0019
rtibia 10.3913
rfoot -19.2268 -19.4777
rtoes -12.3841
lfemur -14.191 -4.46245 -22.1863
ltibia 17.9384
lfoot -5.40654 6.24838
ltoes -10.2428
